<svg width="45" height="45" viewBox="0 0 45 45" fill="none" xmlns="http://www.w3.org/2000/svg">
<g id="Social Icons" clip-path="url(#clip0_49_208)">
<path id="Vector" d="M44.1702 22.0851C44.1702 9.88783 34.2824 0 22.0851 0C9.88783 0 0 9.88783 0 22.0851C0 33.1082 8.07616 42.2451 18.6343 43.9019V28.4691H13.0268V22.0851H18.6343V17.2195C18.6343 11.6844 21.9315 8.62699 26.9762 8.62699C29.3917 8.62699 31.9199 9.05834 31.9199 9.05834V14.4934H29.1351C26.3917 14.4934 25.5359 16.1959 25.5359 17.9441V22.0851H31.6611L30.6819 28.4691H25.5359V43.9019C36.0941 42.2451 44.1702 33.1082 44.1702 22.0851Z" fill="#333333"/>
</g>
<defs>
<clipPath id="clip0_49_208">
<rect width="44.1702" height="44.1702" fill="white"/>
</clipPath>
</defs>
</svg>
