<svg width="45" height="45" viewBox="0 0 45 45" fill="none" xmlns="http://www.w3.org/2000/svg">
<g id="Social Icons" clip-path="url(#clip0_49_194)">
<path id="Vector" d="M22.0851 3.97704C27.986 3.97704 28.6848 4.00292 31.0054 4.10645C33.1622 4.20135 34.3268 4.56368 35.1032 4.86563C36.1299 5.26247 36.8718 5.74558 37.6396 6.51338C38.416 7.28981 38.8905 8.02311 39.2873 9.04972C39.5893 9.82615 39.9516 10.9994 40.0465 13.1475C40.15 15.4768 40.1759 16.1756 40.1759 22.0679C40.1759 27.9687 40.15 28.6675 40.0465 30.9882C39.9516 33.1449 39.5893 34.3096 39.2873 35.086C38.8905 36.1126 38.4074 36.8545 37.6396 37.6223C36.8631 38.3988 36.1299 38.8732 35.1032 39.2701C34.3268 39.572 33.1535 39.9344 31.0054 40.0293C28.6761 40.1328 27.9773 40.1587 22.0851 40.1587C16.1842 40.1587 15.4855 40.1328 13.1648 40.0293C11.008 39.9344 9.8434 39.572 9.06697 39.2701C8.04036 38.8732 7.29844 38.3901 6.53063 37.6223C5.75421 36.8459 5.27972 36.1126 4.88288 35.086C4.58093 34.3096 4.2186 33.1363 4.1237 30.9882C4.02018 28.6589 3.9943 27.9601 3.9943 22.0679C3.9943 16.167 4.02018 15.4682 4.1237 13.1475C4.2186 10.9908 4.58093 9.82615 4.88288 9.04972C5.27972 8.02311 5.76283 7.28118 6.53063 6.51338C7.30706 5.73695 8.04036 5.26247 9.06697 4.86563C9.8434 4.56368 11.0167 4.20135 13.1648 4.10645C15.4855 4.00292 16.1842 3.97704 22.0851 3.97704ZM22.0851 0C16.0893 0 15.3388 0.025881 12.9836 0.129405C10.6371 0.232929 9.02384 0.612516 7.62626 1.15602C6.1683 1.7254 4.93464 2.47595 3.70961 3.70961C2.47595 4.93464 1.7254 6.1683 1.15602 7.61764C0.612517 9.02384 0.232929 10.6285 0.129405 12.975C0.025881 15.3388 0 16.0893 0 22.0851C0 28.0809 0.025881 28.8314 0.129405 31.1866C0.232929 33.5331 0.612517 35.1464 1.15602 36.5439C1.7254 38.0019 2.47595 39.2356 3.70961 40.4606C4.93464 41.6856 6.1683 42.4448 7.61764 43.0056C9.02384 43.5491 10.6285 43.9287 12.975 44.0322C15.3302 44.1357 16.0807 44.1616 22.0765 44.1616C28.0722 44.1616 28.8228 44.1357 31.178 44.0322C33.5245 43.9287 35.1378 43.5491 36.5353 43.0056C37.9847 42.4448 39.2183 41.6856 40.4434 40.4606C41.6684 39.2356 42.4276 38.0019 42.9883 36.5526C43.5318 35.1464 43.9114 33.5418 44.0149 31.1952C44.1185 28.84 44.1443 28.0895 44.1443 22.0937C44.1443 16.098 44.1185 15.3474 44.0149 12.9923C43.9114 10.6457 43.5318 9.03246 42.9883 7.63489C42.4448 6.1683 41.6943 4.93464 40.4606 3.70961C39.2356 2.48457 38.0019 1.7254 36.5526 1.16464C35.1464 0.621144 33.5418 0.241556 31.1952 0.138032C28.8314 0.025881 28.0809 0 22.0851 0Z" fill="#333333"/>
<path id="Vector_2" d="M22.0851 10.7407C15.8219 10.7407 10.7406 15.822 10.7406 22.0852C10.7406 28.3484 15.8219 33.4297 22.0851 33.4297C28.3483 33.4297 33.4296 28.3484 33.4296 22.0852C33.4296 15.822 28.3483 10.7407 22.0851 10.7407ZM22.0851 29.444C18.0218 29.444 14.7263 26.1485 14.7263 22.0852C14.7263 18.0219 18.0218 14.7264 22.0851 14.7264C26.1484 14.7264 29.4439 18.0219 29.4439 22.0852C29.4439 26.1485 26.1484 29.444 22.0851 29.444Z" fill="#333333"/>
<path id="Vector_3" d="M36.5267 10.2918C36.5267 11.7584 35.3362 12.9403 33.8782 12.9403C32.4116 12.9403 31.2297 11.7498 31.2297 10.2918C31.2297 8.82521 32.4202 7.64331 33.8782 7.64331C35.3362 7.64331 36.5267 8.83384 36.5267 10.2918Z" fill="#333333"/>
</g>
<defs>
<clipPath id="clip0_49_194">
<rect width="44.1702" height="44.1702" fill="white"/>
</clipPath>
</defs>
</svg>
