<svg width="45" height="45" viewBox="0 0 45 45" fill="none" xmlns="http://www.w3.org/2000/svg">
<g id="Social Icons" clip-path="url(#clip0_49_202)">
<path id="Vector" d="M13.8955 40.0293C30.5594 40.0293 39.6764 26.22 39.6764 14.2484C39.6764 13.8601 39.6678 13.4633 39.6505 13.0751C41.4241 11.7925 42.9546 10.2038 44.1702 8.38373C42.5185 9.11861 40.7648 9.59856 38.969 9.80718C40.8598 8.6738 42.2756 6.8933 42.9538 4.79576C41.175 5.84994 39.2297 6.59357 37.2013 6.99478C35.8346 5.54259 34.0276 4.58107 32.0596 4.25888C30.0917 3.93668 28.0724 4.27176 26.3139 5.2123C24.5555 6.15284 23.1559 7.64647 22.3314 9.46224C21.507 11.278 21.3037 13.3148 21.753 15.2577C18.1512 15.077 14.6276 14.1413 11.4106 12.5114C8.19362 10.8815 5.35507 8.59379 3.07897 5.79649C1.92214 7.79101 1.56815 10.1512 2.08894 12.3973C2.60973 14.6435 3.96623 16.607 5.88275 17.889C4.44394 17.8433 3.03666 17.4559 1.77716 16.7588V16.871C1.77587 18.9641 2.49948 20.993 3.82497 22.6129C5.15047 24.2328 6.99605 25.3437 9.04799 25.7568C7.71517 26.1214 6.31631 26.1746 4.95966 25.9121C5.53868 27.7121 6.66524 29.2865 8.18211 30.4155C9.69898 31.5445 11.5305 32.1718 13.421 32.2098C10.2115 34.7309 6.24673 36.0984 2.16538 36.0919C1.44158 36.0908 0.7185 36.0464 0 35.9591C4.14621 38.6191 8.96937 40.0318 13.8955 40.0293Z" fill="#333333"/>
</g>
<defs>
<clipPath id="clip0_49_202">
<rect width="44.1702" height="44.1702" fill="white"/>
</clipPath>
</defs>
</svg>
